<mxfile host="app.diagrams.net" modified="2023-06-18T19:31:47.849Z" agent="Mozilla/5.0 (Macintosh; Intel Mac OS X 10_15_7) AppleWebKit/605.1.15 (KHTML, like Gecko) Version/16.4 Safari/605.1.15" etag="XQVEt69o1_1GUr3-e2fj" version="21.5.0" type="device">
  <diagram name="Page-1" id="u50VTjImxwNogS5Y1yyd">
    <mxGraphModel dx="754" dy="415" grid="1" gridSize="10" guides="1" tooltips="1" connect="1" arrows="1" fold="1" page="1" pageScale="1" pageWidth="827" pageHeight="1169" math="0" shadow="0">
      <root>
        <mxCell id="0" />
        <mxCell id="1" parent="0" />
        <mxCell id="CbzExD7F-ffnB-Tjp5Kc-28" value="" style="edgeStyle=orthogonalEdgeStyle;rounded=0;orthogonalLoop=1;jettySize=auto;html=1;" parent="1" source="CbzExD7F-ffnB-Tjp5Kc-3" target="CbzExD7F-ffnB-Tjp5Kc-7" edge="1">
          <mxGeometry relative="1" as="geometry" />
        </mxCell>
        <mxCell id="CbzExD7F-ffnB-Tjp5Kc-3" value="&lt;br&gt;" style="rounded=0;whiteSpace=wrap;html=1;" parent="1" vertex="1">
          <mxGeometry x="317" y="190" width="194" height="70" as="geometry" />
        </mxCell>
        <mxCell id="CbzExD7F-ffnB-Tjp5Kc-15" style="edgeStyle=orthogonalEdgeStyle;rounded=0;orthogonalLoop=1;jettySize=auto;html=1;" parent="1" source="CbzExD7F-ffnB-Tjp5Kc-1" target="CbzExD7F-ffnB-Tjp5Kc-2" edge="1">
          <mxGeometry relative="1" as="geometry" />
        </mxCell>
        <mxCell id="CbzExD7F-ffnB-Tjp5Kc-24" value="3. Update replica count" style="edgeLabel;html=1;align=center;verticalAlign=middle;resizable=0;points=[];" parent="CbzExD7F-ffnB-Tjp5Kc-15" vertex="1" connectable="0">
          <mxGeometry x="-0.4508" y="-2" relative="1" as="geometry">
            <mxPoint as="offset" />
          </mxGeometry>
        </mxCell>
        <mxCell id="CbzExD7F-ffnB-Tjp5Kc-18" style="edgeStyle=orthogonalEdgeStyle;rounded=0;orthogonalLoop=1;jettySize=auto;html=1;entryX=0.5;entryY=1;entryDx=0;entryDy=0;" parent="1" source="CbzExD7F-ffnB-Tjp5Kc-1" target="CbzExD7F-ffnB-Tjp5Kc-17" edge="1">
          <mxGeometry relative="1" as="geometry" />
        </mxCell>
        <mxCell id="CbzExD7F-ffnB-Tjp5Kc-19" value="1. Query for metrics" style="edgeLabel;html=1;align=center;verticalAlign=middle;resizable=0;points=[];" parent="CbzExD7F-ffnB-Tjp5Kc-18" vertex="1" connectable="0">
          <mxGeometry x="-0.1423" y="2" relative="1" as="geometry">
            <mxPoint x="-11" y="12" as="offset" />
          </mxGeometry>
        </mxCell>
        <mxCell id="CbzExD7F-ffnB-Tjp5Kc-1" value="&lt;span style=&quot;white-space: pre;&quot;&gt;&#x9;&lt;/span&gt;Horizontal Pod Autoscaler (HPA)" style="rounded=0;whiteSpace=wrap;html=1;" parent="1" vertex="1">
          <mxGeometry x="279" y="310" width="270" height="40" as="geometry" />
        </mxCell>
        <mxCell id="CbzExD7F-ffnB-Tjp5Kc-12" style="edgeStyle=orthogonalEdgeStyle;rounded=0;orthogonalLoop=1;jettySize=auto;html=1;entryX=0.5;entryY=1;entryDx=0;entryDy=0;dashed=1;exitX=0.5;exitY=0;exitDx=0;exitDy=0;" parent="1" source="CbzExD7F-ffnB-Tjp5Kc-2" target="CbzExD7F-ffnB-Tjp5Kc-10" edge="1">
          <mxGeometry relative="1" as="geometry" />
        </mxCell>
        <mxCell id="CbzExD7F-ffnB-Tjp5Kc-13" style="edgeStyle=orthogonalEdgeStyle;rounded=0;orthogonalLoop=1;jettySize=auto;html=1;entryX=0.5;entryY=1;entryDx=0;entryDy=0;dashed=1;exitX=0.5;exitY=0;exitDx=0;exitDy=0;" parent="1" source="CbzExD7F-ffnB-Tjp5Kc-2" target="CbzExD7F-ffnB-Tjp5Kc-5" edge="1">
          <mxGeometry relative="1" as="geometry" />
        </mxCell>
        <mxCell id="CbzExD7F-ffnB-Tjp5Kc-14" style="edgeStyle=orthogonalEdgeStyle;rounded=0;orthogonalLoop=1;jettySize=auto;html=1;entryX=0.5;entryY=1;entryDx=0;entryDy=0;dashed=1;" parent="1" source="CbzExD7F-ffnB-Tjp5Kc-2" target="CbzExD7F-ffnB-Tjp5Kc-7" edge="1">
          <mxGeometry relative="1" as="geometry" />
        </mxCell>
        <mxCell id="CbzExD7F-ffnB-Tjp5Kc-29" value="4. Scale replicas" style="edgeLabel;html=1;align=center;verticalAlign=middle;resizable=0;points=[];" parent="CbzExD7F-ffnB-Tjp5Kc-14" vertex="1" connectable="0">
          <mxGeometry x="-0.531" y="-1" relative="1" as="geometry">
            <mxPoint x="-1" y="-6" as="offset" />
          </mxGeometry>
        </mxCell>
        <mxCell id="CbzExD7F-ffnB-Tjp5Kc-2" value="Scale" style="rounded=0;whiteSpace=wrap;html=1;fillColor=#f5f5f5;fontColor=#333333;strokeColor=#666666;" parent="1" vertex="1">
          <mxGeometry x="394" y="200" width="40" height="36" as="geometry" />
        </mxCell>
        <mxCell id="CbzExD7F-ffnB-Tjp5Kc-5" value="&lt;br&gt;&lt;br&gt;Pod 1" style="rounded=0;whiteSpace=wrap;html=1;" parent="1" vertex="1">
          <mxGeometry x="324" y="80" width="40" height="50" as="geometry" />
        </mxCell>
        <mxCell id="CbzExD7F-ffnB-Tjp5Kc-7" value="&lt;br&gt;&lt;br&gt;Pod 2" style="rounded=0;whiteSpace=wrap;html=1;" parent="1" vertex="1">
          <mxGeometry x="394" y="80" width="40" height="50" as="geometry" />
        </mxCell>
        <mxCell id="CbzExD7F-ffnB-Tjp5Kc-10" value="&lt;br&gt;&lt;br&gt;Pod N" style="rounded=0;whiteSpace=wrap;html=1;" parent="1" vertex="1">
          <mxGeometry x="464" y="80" width="40" height="50" as="geometry" />
        </mxCell>
        <mxCell id="CbzExD7F-ffnB-Tjp5Kc-4" value="RC / Deployment" style="text;html=1;strokeColor=none;fillColor=none;align=center;verticalAlign=middle;whiteSpace=wrap;rounded=0;" parent="1" vertex="1">
          <mxGeometry x="317" y="242" width="96" height="20" as="geometry" />
        </mxCell>
        <mxCell id="CbzExD7F-ffnB-Tjp5Kc-17" value="Metrics Server" style="rounded=0;whiteSpace=wrap;html=1;" parent="1" vertex="1">
          <mxGeometry x="560" y="220" width="131" height="40" as="geometry" />
        </mxCell>
        <mxCell id="CbzExD7F-ffnB-Tjp5Kc-20" style="edgeStyle=orthogonalEdgeStyle;rounded=0;orthogonalLoop=1;jettySize=auto;html=1;entryX=0.25;entryY=1;entryDx=0;entryDy=0;exitX=0.75;exitY=1;exitDx=0;exitDy=0;" parent="1" source="CbzExD7F-ffnB-Tjp5Kc-1" target="CbzExD7F-ffnB-Tjp5Kc-1" edge="1">
          <mxGeometry relative="1" as="geometry">
            <Array as="points">
              <mxPoint x="460" y="350" />
              <mxPoint x="460" y="380" />
              <mxPoint x="346" y="380" />
            </Array>
          </mxGeometry>
        </mxCell>
        <mxCell id="CbzExD7F-ffnB-Tjp5Kc-23" value="2. Calculate the replicas" style="edgeLabel;html=1;align=center;verticalAlign=middle;resizable=0;points=[];" parent="CbzExD7F-ffnB-Tjp5Kc-20" vertex="1" connectable="0">
          <mxGeometry x="0.0814" y="2" relative="1" as="geometry">
            <mxPoint x="-6" y="8" as="offset" />
          </mxGeometry>
        </mxCell>
        <mxCell id="757bfJ0RXFp-mvQLW1i1-1" value="" style="shape=image;verticalLabelPosition=bottom;labelBackgroundColor=default;verticalAlign=top;aspect=fixed;imageAspect=0;image=data:image/png,iVBORw0KGgoAAAANSUhEUgAAAIAAAAB8CAYAAAChbripAAAABmJLR0QA/wD/AP+gvaeTAAAa9klEQVR4nO2deWBU1bnAf+fOmj0kISBBQCSEVdm3ANqqT63FhUXQ1/pqrVqXWkWsIn363Gr79KmtWmtVRG0VrVVLsVhBRQKyE7ZIEnbDThJCJsns97w/Zu7kZpgsk8yShPz+mnPuved+M+ebc77zne+cA2cRUkohpbxESvmmlLJYSlknpTwupdwupXxaSnlBvGXsIgpIKRUp5TQp5UbZPKullNPiLXMXEUBKaZJS3iSl3NWCig9ms5RylpRSxPt7RJNO+eWklInAz4B5wLlBlx2HTnoKC4ocnn1HvZbURMV9bnfFc8mIhIyURGUooATdvw14GvibEEKNvvSxpVMpgJQyDbgL+CWQ3eAaVC7fYt/xuw+qL6yq9aaHer5vD0PZYz/KODC8n2kcYAm6XAr8DviLEMIVBfHjQqdQACllFnA3cA/QTX9NlZR/sdVe9OR7p0fW2NXUlpSXmaqUPzAzrejSEQkjhSD4mWPAC8CLQoi6SMgfTzq0AkgpewD3Ab8AEvXXvCqHPiyo2ff7f9jGOt0yoTXlpyUptl/NStt++eiEISJIsYBy4GXg90KIU60pvz3QIRVASnkecC9wG2DVX3N5+e7t5bYjf15mG+NVMUbifUkWUXvXtJTNs6YkD1QUegZdtgFvAr8VQhyNxPtiSYdSACnlcOAB4AZoWLkOlyx5Y3lN+aLPbRNUFUM03m8yCtePL03eeNsVKTkmA/2CLjuBt4AnhRBl0Xh/NOgQCiClHAnMB2YSJLOtTt3x3MfVjn+urxsjZWy+jyJQr5+avP6ea1KyLSZxftBlF/A+8JQQoiQW8rSFdq0AUsrJwIPAD4OvVdWqRU+8W8XK7Y6hsZfMhyJQfzg+cfO8mWmJSRYRLIcK/Av4HyHE5jiI1yLanQL4HS8/BB4GJgRdVo9VeTc/8tap5M17XINjL13jTBps3bHgxjRHz3TD2BCXVwCPCCHWxlqu5mg3CiClVICrgP8BRgVddu896tmw4K1T5+w+7O4fc+HCYOJgy45f35ju6JluGMOZv+8a4HdCiH/GQbSQxF0BpJRmYA6wABgYdNlZethT+NCblX0PHvecE3vpWs+wfubSR25MP3n+OcYJcIZRuhV4Hp9TKa7exbgpgJQyiXp3be+G16jdvMe5+b/frhp0osqbHbKADkKfbEPZgjnp+8fkWsZzpndxJ/AM8K4QwhN76eKgAFLKVOBm4CFoOKZWpaz8Yqtjx9OLqy88XRfaXdtRyck0HHnkP9P3jMm1jCHIaQUcwOddfFUI4YilXDFTAClld+r99A0qV5Wc/HyLvfQ3i6tG1jpk8I/TqchIUSp+NStt56UjEkYIQVrQ5ePAn4DnhBDVsZAn6gogpewLzMXX3Ae7a8s+LKjZ/8IS2ziXS1pDFtBJSbKImrumpWyZNTV5kCII7uY0N/MfhBCV0ZQjagogpTwf3+TM7QT1fU6X3PP68prjb31uGx8pd21HJdGi1N49LXnzrCnJuYpCsKFbAyzEN3I4Eo33R1wB/GFV84AbCbJ+HS5Z/Nqymuq3v7CNVWPktesoaG7mW69I7mU2iPOCLjuBD4DHhRB7IvneiFWClDIfn2F3VXC5mrt2ybq6UE6SLnRo3sUHZqYlJ1pEsLPLDSwGnhZC7IrE+9qsAE25a0+e9mx79J3TxvUlzri5azsqQiCnjU/cNPe61ISURGVY0GXNzfy4EGJjm97T2gellEOAV4CpQZe8ZeWeNQsWVWUVHXQNaYtwXfj43oUJOx+anaZmpSjBUcsS+CtwvxDiRGvKbpUCSCmvxtcn6Y07V/Eh99pfLzrVZ/9xT3Af1kUEGJ1rLn3khvTa3t2NI2hYd8eAS4QQ34ZbZtgKIKWcCiwHzFre4Qrvup+/WNHnSIWnV7jldRE+F/Y3F794Z6Y3aAbyBDAy3NFCWAogpUzAFyWbq2W9/UVtwe8/OR3cDXQRZRSBunBu5prh/SxTdNkfCSFmhFVOmO+dTX3ls2StfVVX5ccHVaLc/FzF5O9OePRTzNOllGEZ3OEqwBztQ61TFj2x+NTkMJ/vIoJIibjlhfKBEvTewhvDKaPFCuCftg38219eYquOVuxdFy2n0qZmri927tBlXRrO8+G0AKMALby67pO1tSPCeVEX0eONz2r0cwkj/SujWkQ4ChBo7k/VqCWtjbXvIvJs3efMkxJt9tAEtNjjGo4CTAq8cK/rdBjPdRFlVIlSUa3u1mXlt/TZcBRgovbhi632lDCe6yIGbNnrqtElI6sAUsoB1EfvqKt3OXObur+L2LN8i10fXDLJH2TbLC2diw9olNMl99pq1Q6rAELAoN4m8odayR9ioc4pWV3kYE2Rk+9OxiUsLyKsK3bmAh58dZoODAaKmnsubAUoPeI5is4Z1BFIMAvGDrQwZZiVyUMtZKc3HL1OGGRh3gw4XO5lfYmTgp0O1pU4cbllnCQOnzqnmmR3yuIEixjkz8onggoQMABXbrd3iLF/TpaBqcOsTBlmZdQAMyZD817vnCwD07MSmZ6fiNMt2brPRcFOByu3Ozha6Y2B1G1jV5nrxKgBFr0C/Lm5Z5pVACml1pwA8OU2e59WSxhFLCbBiP5mpg63ctFwK+dktE1PLSbB+DwL4/MszJuRxuFyLwVFDlbtcLBljwu3t/21Dl9td5pGDQhM0LbIEGz2byGl/AHwKYAqOTH2niPtJk4/J8sQqKRJQ6wkWmITZWZ3STaVOlm108HqIicnqtpH69Czm+H4p4/36KHLOkcIcaypZ1rSBQQ06XC5Zx+cEcEaMwwKDD/PzJShVsYPsjD4XFNc5EgwC6b4uxeAfcc8rNrhYEOJk027nXjjtNbn2ClvD68qjxgUoU3LTwQ+buqZsBRgfbHT2Qb5WkVGisKkwVamDLMwcbCVJGv7iyXt39NI/57J/OSyZE7XqmwsdbK+xMnK7Q4qbbHVhrKT3gP9ehg1BcinLQogpWzgVly+1ZnVZglbSP+eRuZOT2Pi4ODVVO2btCSFS0cmcOnIBOZfD//cUMdLS6pjpghrvnV6+vUIVGuzdkCTfycp5ThgvT9pn3DfUYPbI81NPRNpzj/HyJRhVsblWRg9wIyxBdZ8PHG5JYX7XGwocbJqh4N9x2LrWxjez1y66P4sbZGtG0hvajOr5rqAwPCvqlYtdXvkhRGQMSz2HvWw92gNi5bXkJakMHagz+ibOtxCVmr7GJFW2lTW7vIZhWt3Oah1xG+EUPSda4CUVPt3NzMBo4GCxu5vTgECTci2/e6Y7oQ1bXwiZeUetu93ofpbz9O1KisK7awotPP0+5DX28T4QRamDrNywXlmRIwaB1WFksNuCnb6hoXFh9zIEHVuMfkcUEJAwc7YrPlUVZRKm7onM1XR9ljIpw0KoJsAciRFQL4WM21CIqMHmKmuU9lQ4qRgp+8fVl3n0wZVwq4yN7vK3CxaXkO3ZIXRuT5lmDrcQkpCuMFOTXOqRmXzbp8cX+9wYLOH7tP1Rqs2NH33q9qYKQDAlr1O22UjA7P1TdoBjSqAfyu2HC25eqd9QGTEC4/UxHqjKvift6vMHbjvVE1966AokJdjYupw31BtUG9T2K2DKqHkkJv1xU4Kihxs3+dCbaRl1+yUWLdEjbGi0JGqVwAppdLYRhRNtQD1E0Buufd0rRoXBdCjKDD4XBODzzVx25UpHK7w+ipop4N1xU5cHl8NqWp96/Dqv2z0yjAwYXDzDiOttVlf4mTVDifl1aEdPFazYFwTcwvx5psiRx71E0PdgDwg5FKyphQgYADuPeo5CsRdAYLJyTQwPd/nu3e4JBv93rngyjtS6eWjNXV8tKYOs0kwJtdM/pAzZwN3HKy3N4LRlGjqMJ8Tymxsv6OROpdMtDtlSYJF5Pmz8mmFAgRagJU7HO332/qx6rxz82f7mu9QRprLLfnmWyfffOvkmSbKC+5G4uV1bC3FZa7jIwdYNAWYBLwe6r6QCuDfxiUQX/7lVnvwluvtGkU07Cr0w7RvvnVQ5wzdmeunjS8abiUzNbKGZCxZud1pHNmCiaHGWoCJ+Nf2q5Ly/cc8fSMrXmzJSFG4alwCV41LwOGSrC9x8txH1Rwq9zlpRg8wc/sPUhhxvgVDx63zBny1w9H/vumBjc5zpZTZoRaQNvZ1AxpztNKzNwryxQ2rWXDRcCu9MusNt6F9zYzO7TyVD3C43NNTVdHWCQp0Q3o9zSrAhmK3PcKytQv0jpv2N7MfGcrKPQd1yZDdwBkKIKU0AOO09PLCuphNAMWSBgrQSTXgmyKnW5dsmQIAFwLJ/s/OrXtdHSr+r6V00jpvwPKtdn1wyGgpz9yJLZQCBDTFVidLnB7ZseZjuwiw44BrgJRo6wUs+CaGGtCkAmzb5+ywR6E0i67d76xdgKpiqKxtesVQKAUIeAC/2ObotOv/ZIPPnVQDgMI9Tv2Oo00rgJSyD/Xn7MnVRY7g0zA6DWeDEQiwotChX8Y3KfggzOAWIKAhLq/cX2lTM6MpXDxp0AJ0YgX4psgxENAmRrII2pI/WAHqJ4COeA5HV7T40pkrXU+tUyY7XFLvzGvQDTTaAhTsbP8TQG3iLOkCAEoPu/RrAybprwUUQEqZDAzX0l8U2nPoxMhGPndGvtrm1M/5NNoCTMA/OSShYu8xT7/oixY/zhYjEODLbQ79ZF6e/+wGoKECBDTjeKVnb6zO4Osi+hwq9+SoKtqppgLdaWx6BQj0DRtL3R3+UOTmOJu6AIBD5Z4DumTgz65A4Mi28VrmvwvtGTGTLE7Is0wDvil26o+8b6gA+Iw/bYsR5+bdZ8MWMHpXcOfXgBVb7PpFvWOl9M3xaAqgmwBSd7vOgi3gzoZ4AD3b97typaTWn7TgP5zzDAXYedBVEWPZ4sLZNAoA8KoYq2rVUl1WPoRQgC+3O9vF9O+pmthtuhDt+o/ld2mKrfvOnBhSpJS9gMA4sWCno12czTt/4Skefaeq0cUZbUWNgRF44LiHBxeeYuHnNc3fHAO+KHQk65KTpZTCiG4LWLeXAyervP1iLlkIVAlLN9SxYqudORcl8dP/SIna5hCR7gKqalRe/7eND1bVxm23kFCs2hmYGDLgmxgaYEQXLfrdcc8hoF9cpGsEh0uyaHkNn6yt49YrUpg1JSki0bvRMAIdLsnir2tZ+LktrkvEG6PWIVOcLrnbYhbaKG+SEd34v/iwu93ulFhVo/LMh6f5W0Etd1yVwqUj289ARZWwbKOdP/yjOmpdVqQot6kVOZkGTQHGG9Gt+TtS4WlfqxxDoPWr4/LquPfaVPJ6t27JVqTiAdaXOHnh42pKD7ubv7kdUGlTXTn1ayL6GoFAxEhWirF9q6+ODSVOfvS/J/n+iAR+eW0qvcLcF7CtXcC+Yx5+/0k1q4tieth3m+mWouj/Md2MQAX+fQBGDDB1qBWQqoQVhXZWFzmYc1ESN1+WTHILN4aQrdSAE1VeXvvMxidr6xpdSdyeyU5X9KHiRxTqN4GiXw/jYKu58Q2F2iuaoXj1YydY/HX4lndLgkLt/nfMePIEH63pmJV/QT9zidkg9MP8rQrwkZYSkPGrmekbYi9aZDhd6zMUZz11ghWFTa9oa6knUJXw6QY71zx2nBeXVDe6srgj8ORP0quCshYr+A4jLtFyrp5gHZvb29ShF4QePOEzFG9+rpxt+10h72mJEbi+xMkNvz3JI++coqK6A/7ldcyekrQuJ9M4Xpf1VyHEHkUI4QV+hm9POYQQSW/PyxIpCUqHPxZm+34XtzxfzoMLT3G4oqF925QJUFzm5vY/VHDnSxXsOdIxrPumGNjbtP+BWWn6A6hPAHPBPxcghFgNzNOumg2i/4cLsvcoCh1mVNAY0m8oznjiBM/+/XRgd69Q8QDHq7w8tbiKHz97kk27Y74rblRIsgrborlZUojAek8PMFvbK6CBb1VK+Tpwi5b+apt95bzXT10cK2FjQXqywm1XpvDuV7WBDSLyh1rJ7WXkvZW1ODvQIRHNoQjUpY/32Nwj3aA/RewXQoiXtESwAliBr6lfHi6f/ah63Xtf1YTcXKCL9s0Lt2eunDLMcrEu6x0hxE36exoMmoUQDuBaqN9Z4v7rUi8Y3MekX2DYRQdgRn7C+inDLBfpsrYAtwffd4bXRAhxFJgJOH1pkt66v3tCtxRRGXxvF+2TgTnGffNndxtCfQt/HLhGCHHG2Dik20wIsRa4V0sbFHq//1CPA53BKOzspCUaqt5+INsgRMDF7wauF0IcCnV/o35TIcSf0B06lJmqjHr+1ozVEZW2i4iiCNT3H87aYzLUB/jgM/pWNfpMM2XejW6n6cnDrFN/9L3kb9ooZxdR4g93ZBR0TzOM0WUtEkK82tQzTSqAEMINXA9ozYe4b3rqyJHnm0NuO9pF/JhzUXLBxMHWqbqstcDPm3uu2akz/6lTs/AbhUDCq/dkpmakKGdF9HBHYFg/c+kDM1NHUW/0HQNmCSGa9Wa1aO5UCLEOuE1LGxSR88HD2QcNCu02guhsIS1JOfX6vZkJgHaegxtf5bdof4cWR9cJId4GXtbS3ZKVUS/dkbEmHGE7E1/+tidLH+vR/I1RxKDg+fuvsw+aDEK/l/Odftd+iwg3vPI+YKWWGDfIetFtV6Y0ehxJF9HlT3d3X9MtWRmhy3pJCBFyV/DGCEsB/EbhTGC/lnf7D1LGjsk1fxtOOV20nZ9clrxmVK5J7+n7Brg/3HLCDrAWQlQAMwAtcsj6yt1Z6ZmpSnm4ZXXROi44z1z8i6tTR+qyyoDrhBChgx+aoKWnhzdACFEopbwdeAdAUej19wXZOy5bcDw1FucK5vU28e6D3Vm6vo63VtRwzzWpjDjfd0L4t9+5+dO/bGxuZDr3ijEJXD8lidwcE0YFysq9LNtUx1+/rA0cOaOhCJhzcRIz8pPolWngVI3KF4UOXvm0OmTZsSArVTn5xr1ZqUCiP8sBzAi1FXxLaPUSCyHEX4AXtHRKojL8lbsy1rW2vNbQO8vIm3OzMJt8J3Mt22RnaF8Tr9ydydRhZ2yLy33XpfLUf3Wjd5aRJevqeHelb7Hs3dNS+ePdmWccMT9/djr3T0/DZBS8t7KWZRvtTB1u4aU7M1HisLW80aC43384+4ii0EuXfZcQYmNry2zTWiv/zuKfApdrea//21bwylLblLaU2xxaCwCwaHkNLy6p/0cO6WNi0f3dOV2rctWjx3H55/dHDTDz2i+zOFTu4aZnyzld6wsMMSjw/O2Z5A+x8MelNt74tw2A0bkW/nxPJqWH3fz0uXLsLl85VrPgjXuzGHSuiaOVXn746PFoftUGvDk3c9UF51n0zp7nhRBz21Jmm/TYH052I7BPy/vZ5SkT8odYt7el3JZis6uBCtP49js3n22yk5GiMGVo/ULnayb4WszXPqsJVD6AV4XnPz6NlHDNxMRA/tXjfSuPXv2XLVD54ItA/uOnDd8ZC376Hylrgir/S+BXbS23zQ2ZEKISmA6BzQdML/w8o2fPDEOT59ZHgpJD7pBRulv2+vp//aoh7XMo22D/MQ/l1V5yMg2BAye1+7fsOdOuKtwT23CxcXnWnXdNS9H7+A8Cc4QQbXbERaQnE0JsA27CH12nCLIXP9i93GJs3hXZFhqL1NXy9YtEtM+NPVMeeEYE7veqBE4q1VPnlA1ahWjSPd1w4uU7MzLx7eoBYMdn9J2MRPkRM2WEEB8Bz2rplERl2KJ5Wa02TlpCY6d6afk1uuNdtc+NPZMVeEYG7jcovpNLg0m0CBLM0d9Fz2hQ3O8/1P2YonCOLvsWIcTmSL0j0rbsQ8AyLTEwxzT5nqtTG52Lbit5vU0hTwEd7T8ureRQfUi39nl07pkboPTNNpKVauBwhTcQNazdP2rAmaPaUQNis4nKwnsz16UlKRfosp4RQrwXyXdEVAH859P+J7BHy/uvy5InTh1m3RbJ92ikJCjccnlKg7whfUxcPjqBSptKQVF9D/SPdT6/1a1XJJOWVP+1DQrMnZ6KEPCPtfWr4v653hc9dfsPUhr8261mwR1XNXxnNLjn2tRVQ/uZ9KOpFcDDkX5PVNoxKeVgYB2QCqBKTl796AnP0VOec5p+smVow8DCvS5yexnZVeZm2z4X3dMNXDE6AZNBcP9rlawKOrH7vutS+dH3k6m0+Q6adrol+UOt9O9ppHCvizterMDtre/bf31DOtdNSuRIpZcvt9qREr5/YQInTnsZ0MtIjV1GZRg4Ic+y4+W7MwdS3+8fAMYKISLubY1aRyalvBbfukMBYHfK4kvmH+vrjMAWdKE8gSPPN2My+jyBr3zauCfwyjEJzJqaRG4vE0YDlJ308tmmOv7yVW3AZ6ChCLjh4mRmTE70eQJtKiv8nsClj/Wgzhl5BeiRZjy+9PHuKIrQphprgElCiB0RfZGfqFoyUsongQVaeu8Rz5rrnz7R5Hn2LUGvAI/+JXi9Y8fFbBaOFb/puTfJIrRjeyW+4d4H0XpntB2ajwBLtcT5vYz586ZHzyjs6Cy8t/tGXeUDPB3NyocoK4DfKLwRCEwX3/C95Enfu8C6NZrv7YjMm5H69eBzjXqj73N8f6CoEvUpDSGEDZ+nUFttbHzm1ow+fbINZdF+d0dh4hDr9hsuTtYvv9uNbwFn1NdhxOxMACnl1cDH+JXO4ZIll8w/dq7DJRObfrJzk5NpOPLJoz3MikA7orcGmCCEKIrF+2M2qSmEWAI8oaWtZpH3zrzuZ3VXYDYLx3vzs6t0lS+Bm2NV+RBDBfDzGPChluh/jnHS/NlpX8dYhnbDorlZm5IsYogu63EhxIeNPhAFYqoAQggJ3AwENHzm5KTJV45N3BRLOdoDD8/ptjIvxzRZl7UEeDzWcsQ8rkUIUYPPKNQG8IYnbkrv3y/b+F2sZYkXl45K2DIjP0Ff+cXAj/2jppgSh8AmEEKUArPxn2gpIONvC7KNZ4MSTB1m3fbbn3TLoz4e04ZvejcugYZxPRlMSvkw8FQgDZWvLbN9++dltvzOdmqZxSTsv7m52/qLh1snAdoUo4pv3f7SJh6NKvFWAAG8j2/tYQCvKo9sLnXt3rjbZTxU4bGqasdUBqtZeM/LNjgmDrWKgb1Mw4UInMuk8d9CiCfjIpyfuP+wUkoz8Dfg6njLEmP+Twgxr/nboktcbAA9/sUM1wO/wb9XYSenEri1PVQ+tIMWQI+UcgC+2MKrgPOAbvGVKCJIfMu1S/FNj78bjXn91vL/ANBkewl7s7QAAAAASUVORK5CYII=;" vertex="1" parent="1">
          <mxGeometry x="328.59000000000003" y="83" width="30.95" height="30" as="geometry" />
        </mxCell>
        <mxCell id="757bfJ0RXFp-mvQLW1i1-2" value="" style="shape=image;verticalLabelPosition=bottom;labelBackgroundColor=default;verticalAlign=top;aspect=fixed;imageAspect=0;image=data:image/png,iVBORw0KGgoAAAANSUhEUgAAAIAAAAB8CAYAAAChbripAAAABmJLR0QA/wD/AP+gvaeTAAAa9klEQVR4nO2deWBU1bnAf+fOmj0kISBBQCSEVdm3ANqqT63FhUXQ1/pqrVqXWkWsIn363Gr79KmtWmtVRG0VrVVLsVhBRQKyE7ZIEnbDThJCJsns97w/Zu7kZpgsk8yShPz+mnPuved+M+ebc77zne+cA2cRUkohpbxESvmmlLJYSlknpTwupdwupXxaSnlBvGXsIgpIKRUp5TQp5UbZPKullNPiLXMXEUBKaZJS3iSl3NWCig9ms5RylpRSxPt7RJNO+eWklInAz4B5wLlBlx2HTnoKC4ocnn1HvZbURMV9bnfFc8mIhIyURGUooATdvw14GvibEEKNvvSxpVMpgJQyDbgL+CWQ3eAaVC7fYt/xuw+qL6yq9aaHer5vD0PZYz/KODC8n2kcYAm6XAr8DviLEMIVBfHjQqdQACllFnA3cA/QTX9NlZR/sdVe9OR7p0fW2NXUlpSXmaqUPzAzrejSEQkjhSD4mWPAC8CLQoi6SMgfTzq0AkgpewD3Ab8AEvXXvCqHPiyo2ff7f9jGOt0yoTXlpyUptl/NStt++eiEISJIsYBy4GXg90KIU60pvz3QIRVASnkecC9wG2DVX3N5+e7t5bYjf15mG+NVMUbifUkWUXvXtJTNs6YkD1QUegZdtgFvAr8VQhyNxPtiSYdSACnlcOAB4AZoWLkOlyx5Y3lN+aLPbRNUFUM03m8yCtePL03eeNsVKTkmA/2CLjuBt4AnhRBl0Xh/NOgQCiClHAnMB2YSJLOtTt3x3MfVjn+urxsjZWy+jyJQr5+avP6ea1KyLSZxftBlF/A+8JQQoiQW8rSFdq0AUsrJwIPAD4OvVdWqRU+8W8XK7Y6hsZfMhyJQfzg+cfO8mWmJSRYRLIcK/Av4HyHE5jiI1yLanQL4HS8/BB4GJgRdVo9VeTc/8tap5M17XINjL13jTBps3bHgxjRHz3TD2BCXVwCPCCHWxlqu5mg3CiClVICrgP8BRgVddu896tmw4K1T5+w+7O4fc+HCYOJgy45f35ju6JluGMOZv+8a4HdCiH/GQbSQxF0BpJRmYA6wABgYdNlZethT+NCblX0PHvecE3vpWs+wfubSR25MP3n+OcYJcIZRuhV4Hp9TKa7exbgpgJQyiXp3be+G16jdvMe5+b/frhp0osqbHbKADkKfbEPZgjnp+8fkWsZzpndxJ/AM8K4QwhN76eKgAFLKVOBm4CFoOKZWpaz8Yqtjx9OLqy88XRfaXdtRyck0HHnkP9P3jMm1jCHIaQUcwOddfFUI4YilXDFTAClld+r99A0qV5Wc/HyLvfQ3i6tG1jpk8I/TqchIUSp+NStt56UjEkYIQVrQ5ePAn4DnhBDVsZAn6gogpewLzMXX3Ae7a8s+LKjZ/8IS2ziXS1pDFtBJSbKImrumpWyZNTV5kCII7uY0N/MfhBCV0ZQjagogpTwf3+TM7QT1fU6X3PP68prjb31uGx8pd21HJdGi1N49LXnzrCnJuYpCsKFbAyzEN3I4Eo33R1wB/GFV84AbCbJ+HS5Z/Nqymuq3v7CNVWPktesoaG7mW69I7mU2iPOCLjuBD4DHhRB7IvneiFWClDIfn2F3VXC5mrt2ybq6UE6SLnRo3sUHZqYlJ1pEsLPLDSwGnhZC7IrE+9qsAE25a0+e9mx79J3TxvUlzri5azsqQiCnjU/cNPe61ISURGVY0GXNzfy4EGJjm97T2gellEOAV4CpQZe8ZeWeNQsWVWUVHXQNaYtwXfj43oUJOx+anaZmpSjBUcsS+CtwvxDiRGvKbpUCSCmvxtcn6Y07V/Eh99pfLzrVZ/9xT3Af1kUEGJ1rLn3khvTa3t2NI2hYd8eAS4QQ34ZbZtgKIKWcCiwHzFre4Qrvup+/WNHnSIWnV7jldRE+F/Y3F794Z6Y3aAbyBDAy3NFCWAogpUzAFyWbq2W9/UVtwe8/OR3cDXQRZRSBunBu5prh/SxTdNkfCSFmhFVOmO+dTX3ls2StfVVX5ccHVaLc/FzF5O9OePRTzNOllGEZ3OEqwBztQ61TFj2x+NTkMJ/vIoJIibjlhfKBEvTewhvDKaPFCuCftg38219eYquOVuxdFy2n0qZmri927tBlXRrO8+G0AKMALby67pO1tSPCeVEX0eONz2r0cwkj/SujWkQ4ChBo7k/VqCWtjbXvIvJs3efMkxJt9tAEtNjjGo4CTAq8cK/rdBjPdRFlVIlSUa3u1mXlt/TZcBRgovbhi632lDCe6yIGbNnrqtElI6sAUsoB1EfvqKt3OXObur+L2LN8i10fXDLJH2TbLC2diw9olNMl99pq1Q6rAELAoN4m8odayR9ioc4pWV3kYE2Rk+9OxiUsLyKsK3bmAh58dZoODAaKmnsubAUoPeI5is4Z1BFIMAvGDrQwZZiVyUMtZKc3HL1OGGRh3gw4XO5lfYmTgp0O1pU4cbllnCQOnzqnmmR3yuIEixjkz8onggoQMABXbrd3iLF/TpaBqcOsTBlmZdQAMyZD817vnCwD07MSmZ6fiNMt2brPRcFOByu3Ozha6Y2B1G1jV5nrxKgBFr0C/Lm5Z5pVACml1pwA8OU2e59WSxhFLCbBiP5mpg63ctFwK+dktE1PLSbB+DwL4/MszJuRxuFyLwVFDlbtcLBljwu3t/21Dl9td5pGDQhM0LbIEGz2byGl/AHwKYAqOTH2niPtJk4/J8sQqKRJQ6wkWmITZWZ3STaVOlm108HqIicnqtpH69Czm+H4p4/36KHLOkcIcaypZ1rSBQQ06XC5Zx+cEcEaMwwKDD/PzJShVsYPsjD4XFNc5EgwC6b4uxeAfcc8rNrhYEOJk027nXjjtNbn2ClvD68qjxgUoU3LTwQ+buqZsBRgfbHT2Qb5WkVGisKkwVamDLMwcbCVJGv7iyXt39NI/57J/OSyZE7XqmwsdbK+xMnK7Q4qbbHVhrKT3gP9ehg1BcinLQogpWzgVly+1ZnVZglbSP+eRuZOT2Pi4ODVVO2btCSFS0cmcOnIBOZfD//cUMdLS6pjpghrvnV6+vUIVGuzdkCTfycp5ThgvT9pn3DfUYPbI81NPRNpzj/HyJRhVsblWRg9wIyxBdZ8PHG5JYX7XGwocbJqh4N9x2LrWxjez1y66P4sbZGtG0hvajOr5rqAwPCvqlYtdXvkhRGQMSz2HvWw92gNi5bXkJakMHagz+ibOtxCVmr7GJFW2lTW7vIZhWt3Oah1xG+EUPSda4CUVPt3NzMBo4GCxu5vTgECTci2/e6Y7oQ1bXwiZeUetu93ofpbz9O1KisK7awotPP0+5DX28T4QRamDrNywXlmRIwaB1WFksNuCnb6hoXFh9zIEHVuMfkcUEJAwc7YrPlUVZRKm7onM1XR9ljIpw0KoJsAciRFQL4WM21CIqMHmKmuU9lQ4qRgp+8fVl3n0wZVwq4yN7vK3CxaXkO3ZIXRuT5lmDrcQkpCuMFOTXOqRmXzbp8cX+9wYLOH7tP1Rqs2NH33q9qYKQDAlr1O22UjA7P1TdoBjSqAfyu2HC25eqd9QGTEC4/UxHqjKvift6vMHbjvVE1966AokJdjYupw31BtUG9T2K2DKqHkkJv1xU4Kihxs3+dCbaRl1+yUWLdEjbGi0JGqVwAppdLYRhRNtQD1E0Buufd0rRoXBdCjKDD4XBODzzVx25UpHK7w+ipop4N1xU5cHl8NqWp96/Dqv2z0yjAwYXDzDiOttVlf4mTVDifl1aEdPFazYFwTcwvx5psiRx71E0PdgDwg5FKyphQgYADuPeo5CsRdAYLJyTQwPd/nu3e4JBv93rngyjtS6eWjNXV8tKYOs0kwJtdM/pAzZwN3HKy3N4LRlGjqMJ8Tymxsv6OROpdMtDtlSYJF5Pmz8mmFAgRagJU7HO332/qx6rxz82f7mu9QRprLLfnmWyfffOvkmSbKC+5G4uV1bC3FZa7jIwdYNAWYBLwe6r6QCuDfxiUQX/7lVnvwluvtGkU07Cr0w7RvvnVQ5wzdmeunjS8abiUzNbKGZCxZud1pHNmCiaHGWoCJ+Nf2q5Ly/cc8fSMrXmzJSFG4alwCV41LwOGSrC9x8txH1Rwq9zlpRg8wc/sPUhhxvgVDx63zBny1w9H/vumBjc5zpZTZoRaQNvZ1AxpztNKzNwryxQ2rWXDRcCu9MusNt6F9zYzO7TyVD3C43NNTVdHWCQp0Q3o9zSrAhmK3PcKytQv0jpv2N7MfGcrKPQd1yZDdwBkKIKU0AOO09PLCuphNAMWSBgrQSTXgmyKnW5dsmQIAFwLJ/s/OrXtdHSr+r6V00jpvwPKtdn1wyGgpz9yJLZQCBDTFVidLnB7ZseZjuwiw44BrgJRo6wUs+CaGGtCkAmzb5+ywR6E0i67d76xdgKpiqKxtesVQKAUIeAC/2ObotOv/ZIPPnVQDgMI9Tv2Oo00rgJSyD/Xn7MnVRY7g0zA6DWeDEQiwotChX8Y3KfggzOAWIKAhLq/cX2lTM6MpXDxp0AJ0YgX4psgxENAmRrII2pI/WAHqJ4COeA5HV7T40pkrXU+tUyY7XFLvzGvQDTTaAhTsbP8TQG3iLOkCAEoPu/RrAybprwUUQEqZDAzX0l8U2nPoxMhGPndGvtrm1M/5NNoCTMA/OSShYu8xT7/oixY/zhYjEODLbQ79ZF6e/+wGoKECBDTjeKVnb6zO4Osi+hwq9+SoKtqppgLdaWx6BQj0DRtL3R3+UOTmOJu6AIBD5Z4DumTgz65A4Mi28VrmvwvtGTGTLE7Is0wDvil26o+8b6gA+Iw/bYsR5+bdZ8MWMHpXcOfXgBVb7PpFvWOl9M3xaAqgmwBSd7vOgi3gzoZ4AD3b97typaTWn7TgP5zzDAXYedBVEWPZ4sLZNAoA8KoYq2rVUl1WPoRQgC+3O9vF9O+pmthtuhDt+o/ld2mKrfvOnBhSpJS9gMA4sWCno12czTt/4Skefaeq0cUZbUWNgRF44LiHBxeeYuHnNc3fHAO+KHQk65KTpZTCiG4LWLeXAyervP1iLlkIVAlLN9SxYqudORcl8dP/SIna5hCR7gKqalRe/7eND1bVxm23kFCs2hmYGDLgmxgaYEQXLfrdcc8hoF9cpGsEh0uyaHkNn6yt49YrUpg1JSki0bvRMAIdLsnir2tZ+LktrkvEG6PWIVOcLrnbYhbaKG+SEd34v/iwu93ulFhVo/LMh6f5W0Etd1yVwqUj289ARZWwbKOdP/yjOmpdVqQot6kVOZkGTQHGG9Gt+TtS4WlfqxxDoPWr4/LquPfaVPJ6t27JVqTiAdaXOHnh42pKD7ubv7kdUGlTXTn1ayL6GoFAxEhWirF9q6+ODSVOfvS/J/n+iAR+eW0qvcLcF7CtXcC+Yx5+/0k1q4tieth3m+mWouj/Md2MQAX+fQBGDDB1qBWQqoQVhXZWFzmYc1ESN1+WTHILN4aQrdSAE1VeXvvMxidr6xpdSdyeyU5X9KHiRxTqN4GiXw/jYKu58Q2F2iuaoXj1YydY/HX4lndLgkLt/nfMePIEH63pmJV/QT9zidkg9MP8rQrwkZYSkPGrmekbYi9aZDhd6zMUZz11ghWFTa9oa6knUJXw6QY71zx2nBeXVDe6srgj8ORP0quCshYr+A4jLtFyrp5gHZvb29ShF4QePOEzFG9+rpxt+10h72mJEbi+xMkNvz3JI++coqK6A/7ldcyekrQuJ9M4Xpf1VyHEHkUI4QV+hm9POYQQSW/PyxIpCUqHPxZm+34XtzxfzoMLT3G4oqF925QJUFzm5vY/VHDnSxXsOdIxrPumGNjbtP+BWWn6A6hPAHPBPxcghFgNzNOumg2i/4cLsvcoCh1mVNAY0m8oznjiBM/+/XRgd69Q8QDHq7w8tbiKHz97kk27Y74rblRIsgrborlZUojAek8PMFvbK6CBb1VK+Tpwi5b+apt95bzXT10cK2FjQXqywm1XpvDuV7WBDSLyh1rJ7WXkvZW1ODvQIRHNoQjUpY/32Nwj3aA/RewXQoiXtESwAliBr6lfHi6f/ah63Xtf1YTcXKCL9s0Lt2eunDLMcrEu6x0hxE36exoMmoUQDuBaqN9Z4v7rUi8Y3MekX2DYRQdgRn7C+inDLBfpsrYAtwffd4bXRAhxFJgJOH1pkt66v3tCtxRRGXxvF+2TgTnGffNndxtCfQt/HLhGCHHG2Dik20wIsRa4V0sbFHq//1CPA53BKOzspCUaqt5+INsgRMDF7wauF0IcCnV/o35TIcSf0B06lJmqjHr+1ozVEZW2i4iiCNT3H87aYzLUB/jgM/pWNfpMM2XejW6n6cnDrFN/9L3kb9ooZxdR4g93ZBR0TzOM0WUtEkK82tQzTSqAEMINXA9ozYe4b3rqyJHnm0NuO9pF/JhzUXLBxMHWqbqstcDPm3uu2akz/6lTs/AbhUDCq/dkpmakKGdF9HBHYFg/c+kDM1NHUW/0HQNmCSGa9Wa1aO5UCLEOuE1LGxSR88HD2QcNCu02guhsIS1JOfX6vZkJgHaegxtf5bdof4cWR9cJId4GXtbS3ZKVUS/dkbEmHGE7E1/+tidLH+vR/I1RxKDg+fuvsw+aDEK/l/Odftd+iwg3vPI+YKWWGDfIetFtV6Y0ehxJF9HlT3d3X9MtWRmhy3pJCBFyV/DGCEsB/EbhTGC/lnf7D1LGjsk1fxtOOV20nZ9clrxmVK5J7+n7Brg/3HLCDrAWQlQAMwAtcsj6yt1Z6ZmpSnm4ZXXROi44z1z8i6tTR+qyyoDrhBChgx+aoKWnhzdACFEopbwdeAdAUej19wXZOy5bcDw1FucK5vU28e6D3Vm6vo63VtRwzzWpjDjfd0L4t9+5+dO/bGxuZDr3ijEJXD8lidwcE0YFysq9LNtUx1+/rA0cOaOhCJhzcRIz8pPolWngVI3KF4UOXvm0OmTZsSArVTn5xr1ZqUCiP8sBzAi1FXxLaPUSCyHEX4AXtHRKojL8lbsy1rW2vNbQO8vIm3OzMJt8J3Mt22RnaF8Tr9ydydRhZ2yLy33XpfLUf3Wjd5aRJevqeHelb7Hs3dNS+ePdmWccMT9/djr3T0/DZBS8t7KWZRvtTB1u4aU7M1HisLW80aC43384+4ii0EuXfZcQYmNry2zTWiv/zuKfApdrea//21bwylLblLaU2xxaCwCwaHkNLy6p/0cO6WNi0f3dOV2rctWjx3H55/dHDTDz2i+zOFTu4aZnyzld6wsMMSjw/O2Z5A+x8MelNt74tw2A0bkW/nxPJqWH3fz0uXLsLl85VrPgjXuzGHSuiaOVXn746PFoftUGvDk3c9UF51n0zp7nhRBz21Jmm/TYH052I7BPy/vZ5SkT8odYt7el3JZis6uBCtP49js3n22yk5GiMGVo/ULnayb4WszXPqsJVD6AV4XnPz6NlHDNxMRA/tXjfSuPXv2XLVD54ItA/uOnDd8ZC376Hylrgir/S+BXbS23zQ2ZEKISmA6BzQdML/w8o2fPDEOT59ZHgpJD7pBRulv2+vp//aoh7XMo22D/MQ/l1V5yMg2BAye1+7fsOdOuKtwT23CxcXnWnXdNS9H7+A8Cc4QQbXbERaQnE0JsA27CH12nCLIXP9i93GJs3hXZFhqL1NXy9YtEtM+NPVMeeEYE7veqBE4q1VPnlA1ahWjSPd1w4uU7MzLx7eoBYMdn9J2MRPkRM2WEEB8Bz2rplERl2KJ5Wa02TlpCY6d6afk1uuNdtc+NPZMVeEYG7jcovpNLg0m0CBLM0d9Fz2hQ3O8/1P2YonCOLvsWIcTmSL0j0rbsQ8AyLTEwxzT5nqtTG52Lbit5vU0hTwEd7T8ureRQfUi39nl07pkboPTNNpKVauBwhTcQNazdP2rAmaPaUQNis4nKwnsz16UlKRfosp4RQrwXyXdEVAH859P+J7BHy/uvy5InTh1m3RbJ92ikJCjccnlKg7whfUxcPjqBSptKQVF9D/SPdT6/1a1XJJOWVP+1DQrMnZ6KEPCPtfWr4v653hc9dfsPUhr8261mwR1XNXxnNLjn2tRVQ/uZ9KOpFcDDkX5PVNoxKeVgYB2QCqBKTl796AnP0VOec5p+smVow8DCvS5yexnZVeZm2z4X3dMNXDE6AZNBcP9rlawKOrH7vutS+dH3k6m0+Q6adrol+UOt9O9ppHCvizterMDtre/bf31DOtdNSuRIpZcvt9qREr5/YQInTnsZ0MtIjV1GZRg4Ic+y4+W7MwdS3+8fAMYKISLubY1aRyalvBbfukMBYHfK4kvmH+vrjMAWdKE8gSPPN2My+jyBr3zauCfwyjEJzJqaRG4vE0YDlJ308tmmOv7yVW3AZ6ChCLjh4mRmTE70eQJtKiv8nsClj/Wgzhl5BeiRZjy+9PHuKIrQphprgElCiB0RfZGfqFoyUsongQVaeu8Rz5rrnz7R5Hn2LUGvAI/+JXi9Y8fFbBaOFb/puTfJIrRjeyW+4d4H0XpntB2ajwBLtcT5vYz586ZHzyjs6Cy8t/tGXeUDPB3NyocoK4DfKLwRCEwX3/C95Enfu8C6NZrv7YjMm5H69eBzjXqj73N8f6CoEvUpDSGEDZ+nUFttbHzm1ow+fbINZdF+d0dh4hDr9hsuTtYvv9uNbwFn1NdhxOxMACnl1cDH+JXO4ZIll8w/dq7DJRObfrJzk5NpOPLJoz3MikA7orcGmCCEKIrF+2M2qSmEWAI8oaWtZpH3zrzuZ3VXYDYLx3vzs6t0lS+Bm2NV+RBDBfDzGPChluh/jnHS/NlpX8dYhnbDorlZm5IsYogu63EhxIeNPhAFYqoAQggJ3AwENHzm5KTJV45N3BRLOdoDD8/ptjIvxzRZl7UEeDzWcsQ8rkUIUYPPKNQG8IYnbkrv3y/b+F2sZYkXl45K2DIjP0Ff+cXAj/2jppgSh8AmEEKUArPxn2gpIONvC7KNZ4MSTB1m3fbbn3TLoz4e04ZvejcugYZxPRlMSvkw8FQgDZWvLbN9++dltvzOdmqZxSTsv7m52/qLh1snAdoUo4pv3f7SJh6NKvFWAAG8j2/tYQCvKo9sLnXt3rjbZTxU4bGqasdUBqtZeM/LNjgmDrWKgb1Mw4UInMuk8d9CiCfjIpyfuP+wUkoz8Dfg6njLEmP+Twgxr/nboktcbAA9/sUM1wO/wb9XYSenEri1PVQ+tIMWQI+UcgC+2MKrgPOAbvGVKCJIfMu1S/FNj78bjXn91vL/ANBkewl7s7QAAAAASUVORK5CYII=;" vertex="1" parent="1">
          <mxGeometry x="398.52000000000004" y="83" width="30.95" height="30" as="geometry" />
        </mxCell>
        <mxCell id="757bfJ0RXFp-mvQLW1i1-3" value="" style="shape=image;verticalLabelPosition=bottom;labelBackgroundColor=default;verticalAlign=top;aspect=fixed;imageAspect=0;image=data:image/png,iVBORw0KGgoAAAANSUhEUgAAAIAAAAB8CAYAAAChbripAAAABmJLR0QA/wD/AP+gvaeTAAAa9klEQVR4nO2deWBU1bnAf+fOmj0kISBBQCSEVdm3ANqqT63FhUXQ1/pqrVqXWkWsIn363Gr79KmtWmtVRG0VrVVLsVhBRQKyE7ZIEnbDThJCJsns97w/Zu7kZpgsk8yShPz+mnPuved+M+ebc77zne+cA2cRUkohpbxESvmmlLJYSlknpTwupdwupXxaSnlBvGXsIgpIKRUp5TQp5UbZPKullNPiLXMXEUBKaZJS3iSl3NWCig9ms5RylpRSxPt7RJNO+eWklInAz4B5wLlBlx2HTnoKC4ocnn1HvZbURMV9bnfFc8mIhIyURGUooATdvw14GvibEEKNvvSxpVMpgJQyDbgL+CWQ3eAaVC7fYt/xuw+qL6yq9aaHer5vD0PZYz/KODC8n2kcYAm6XAr8DviLEMIVBfHjQqdQACllFnA3cA/QTX9NlZR/sdVe9OR7p0fW2NXUlpSXmaqUPzAzrejSEQkjhSD4mWPAC8CLQoi6SMgfTzq0AkgpewD3Ab8AEvXXvCqHPiyo2ff7f9jGOt0yoTXlpyUptl/NStt++eiEISJIsYBy4GXg90KIU60pvz3QIRVASnkecC9wG2DVX3N5+e7t5bYjf15mG+NVMUbifUkWUXvXtJTNs6YkD1QUegZdtgFvAr8VQhyNxPtiSYdSACnlcOAB4AZoWLkOlyx5Y3lN+aLPbRNUFUM03m8yCtePL03eeNsVKTkmA/2CLjuBt4AnhRBl0Xh/NOgQCiClHAnMB2YSJLOtTt3x3MfVjn+urxsjZWy+jyJQr5+avP6ea1KyLSZxftBlF/A+8JQQoiQW8rSFdq0AUsrJwIPAD4OvVdWqRU+8W8XK7Y6hsZfMhyJQfzg+cfO8mWmJSRYRLIcK/Av4HyHE5jiI1yLanQL4HS8/BB4GJgRdVo9VeTc/8tap5M17XINjL13jTBps3bHgxjRHz3TD2BCXVwCPCCHWxlqu5mg3CiClVICrgP8BRgVddu896tmw4K1T5+w+7O4fc+HCYOJgy45f35ju6JluGMOZv+8a4HdCiH/GQbSQxF0BpJRmYA6wABgYdNlZethT+NCblX0PHvecE3vpWs+wfubSR25MP3n+OcYJcIZRuhV4Hp9TKa7exbgpgJQyiXp3be+G16jdvMe5+b/frhp0osqbHbKADkKfbEPZgjnp+8fkWsZzpndxJ/AM8K4QwhN76eKgAFLKVOBm4CFoOKZWpaz8Yqtjx9OLqy88XRfaXdtRyck0HHnkP9P3jMm1jCHIaQUcwOddfFUI4YilXDFTAClld+r99A0qV5Wc/HyLvfQ3i6tG1jpk8I/TqchIUSp+NStt56UjEkYIQVrQ5ePAn4DnhBDVsZAn6gogpewLzMXX3Ae7a8s+LKjZ/8IS2ziXS1pDFtBJSbKImrumpWyZNTV5kCII7uY0N/MfhBCV0ZQjagogpTwf3+TM7QT1fU6X3PP68prjb31uGx8pd21HJdGi1N49LXnzrCnJuYpCsKFbAyzEN3I4Eo33R1wB/GFV84AbCbJ+HS5Z/Nqymuq3v7CNVWPktesoaG7mW69I7mU2iPOCLjuBD4DHhRB7IvneiFWClDIfn2F3VXC5mrt2ybq6UE6SLnRo3sUHZqYlJ1pEsLPLDSwGnhZC7IrE+9qsAE25a0+e9mx79J3TxvUlzri5azsqQiCnjU/cNPe61ISURGVY0GXNzfy4EGJjm97T2gellEOAV4CpQZe8ZeWeNQsWVWUVHXQNaYtwXfj43oUJOx+anaZmpSjBUcsS+CtwvxDiRGvKbpUCSCmvxtcn6Y07V/Eh99pfLzrVZ/9xT3Af1kUEGJ1rLn3khvTa3t2NI2hYd8eAS4QQ34ZbZtgKIKWcCiwHzFre4Qrvup+/WNHnSIWnV7jldRE+F/Y3F794Z6Y3aAbyBDAy3NFCWAogpUzAFyWbq2W9/UVtwe8/OR3cDXQRZRSBunBu5prh/SxTdNkfCSFmhFVOmO+dTX3ls2StfVVX5ccHVaLc/FzF5O9OePRTzNOllGEZ3OEqwBztQ61TFj2x+NTkMJ/vIoJIibjlhfKBEvTewhvDKaPFCuCftg38219eYquOVuxdFy2n0qZmri927tBlXRrO8+G0AKMALby67pO1tSPCeVEX0eONz2r0cwkj/SujWkQ4ChBo7k/VqCWtjbXvIvJs3efMkxJt9tAEtNjjGo4CTAq8cK/rdBjPdRFlVIlSUa3u1mXlt/TZcBRgovbhi632lDCe6yIGbNnrqtElI6sAUsoB1EfvqKt3OXObur+L2LN8i10fXDLJH2TbLC2diw9olNMl99pq1Q6rAELAoN4m8odayR9ioc4pWV3kYE2Rk+9OxiUsLyKsK3bmAh58dZoODAaKmnsubAUoPeI5is4Z1BFIMAvGDrQwZZiVyUMtZKc3HL1OGGRh3gw4XO5lfYmTgp0O1pU4cbllnCQOnzqnmmR3yuIEixjkz8onggoQMABXbrd3iLF/TpaBqcOsTBlmZdQAMyZD817vnCwD07MSmZ6fiNMt2brPRcFOByu3Ozha6Y2B1G1jV5nrxKgBFr0C/Lm5Z5pVACml1pwA8OU2e59WSxhFLCbBiP5mpg63ctFwK+dktE1PLSbB+DwL4/MszJuRxuFyLwVFDlbtcLBljwu3t/21Dl9td5pGDQhM0LbIEGz2byGl/AHwKYAqOTH2niPtJk4/J8sQqKRJQ6wkWmITZWZ3STaVOlm108HqIicnqtpH69Czm+H4p4/36KHLOkcIcaypZ1rSBQQ06XC5Zx+cEcEaMwwKDD/PzJShVsYPsjD4XFNc5EgwC6b4uxeAfcc8rNrhYEOJk027nXjjtNbn2ClvD68qjxgUoU3LTwQ+buqZsBRgfbHT2Qb5WkVGisKkwVamDLMwcbCVJGv7iyXt39NI/57J/OSyZE7XqmwsdbK+xMnK7Q4qbbHVhrKT3gP9ehg1BcinLQogpWzgVly+1ZnVZglbSP+eRuZOT2Pi4ODVVO2btCSFS0cmcOnIBOZfD//cUMdLS6pjpghrvnV6+vUIVGuzdkCTfycp5ThgvT9pn3DfUYPbI81NPRNpzj/HyJRhVsblWRg9wIyxBdZ8PHG5JYX7XGwocbJqh4N9x2LrWxjez1y66P4sbZGtG0hvajOr5rqAwPCvqlYtdXvkhRGQMSz2HvWw92gNi5bXkJakMHagz+ibOtxCVmr7GJFW2lTW7vIZhWt3Oah1xG+EUPSda4CUVPt3NzMBo4GCxu5vTgECTci2/e6Y7oQ1bXwiZeUetu93ofpbz9O1KisK7awotPP0+5DX28T4QRamDrNywXlmRIwaB1WFksNuCnb6hoXFh9zIEHVuMfkcUEJAwc7YrPlUVZRKm7onM1XR9ljIpw0KoJsAciRFQL4WM21CIqMHmKmuU9lQ4qRgp+8fVl3n0wZVwq4yN7vK3CxaXkO3ZIXRuT5lmDrcQkpCuMFOTXOqRmXzbp8cX+9wYLOH7tP1Rqs2NH33q9qYKQDAlr1O22UjA7P1TdoBjSqAfyu2HC25eqd9QGTEC4/UxHqjKvift6vMHbjvVE1966AokJdjYupw31BtUG9T2K2DKqHkkJv1xU4Kihxs3+dCbaRl1+yUWLdEjbGi0JGqVwAppdLYRhRNtQD1E0Buufd0rRoXBdCjKDD4XBODzzVx25UpHK7w+ipop4N1xU5cHl8NqWp96/Dqv2z0yjAwYXDzDiOttVlf4mTVDifl1aEdPFazYFwTcwvx5psiRx71E0PdgDwg5FKyphQgYADuPeo5CsRdAYLJyTQwPd/nu3e4JBv93rngyjtS6eWjNXV8tKYOs0kwJtdM/pAzZwN3HKy3N4LRlGjqMJ8Tymxsv6OROpdMtDtlSYJF5Pmz8mmFAgRagJU7HO332/qx6rxz82f7mu9QRprLLfnmWyfffOvkmSbKC+5G4uV1bC3FZa7jIwdYNAWYBLwe6r6QCuDfxiUQX/7lVnvwluvtGkU07Cr0w7RvvnVQ5wzdmeunjS8abiUzNbKGZCxZud1pHNmCiaHGWoCJ+Nf2q5Ly/cc8fSMrXmzJSFG4alwCV41LwOGSrC9x8txH1Rwq9zlpRg8wc/sPUhhxvgVDx63zBny1w9H/vumBjc5zpZTZoRaQNvZ1AxpztNKzNwryxQ2rWXDRcCu9MusNt6F9zYzO7TyVD3C43NNTVdHWCQp0Q3o9zSrAhmK3PcKytQv0jpv2N7MfGcrKPQd1yZDdwBkKIKU0AOO09PLCuphNAMWSBgrQSTXgmyKnW5dsmQIAFwLJ/s/OrXtdHSr+r6V00jpvwPKtdn1wyGgpz9yJLZQCBDTFVidLnB7ZseZjuwiw44BrgJRo6wUs+CaGGtCkAmzb5+ywR6E0i67d76xdgKpiqKxtesVQKAUIeAC/2ObotOv/ZIPPnVQDgMI9Tv2Oo00rgJSyD/Xn7MnVRY7g0zA6DWeDEQiwotChX8Y3KfggzOAWIKAhLq/cX2lTM6MpXDxp0AJ0YgX4psgxENAmRrII2pI/WAHqJ4COeA5HV7T40pkrXU+tUyY7XFLvzGvQDTTaAhTsbP8TQG3iLOkCAEoPu/RrAybprwUUQEqZDAzX0l8U2nPoxMhGPndGvtrm1M/5NNoCTMA/OSShYu8xT7/oixY/zhYjEODLbQ79ZF6e/+wGoKECBDTjeKVnb6zO4Osi+hwq9+SoKtqppgLdaWx6BQj0DRtL3R3+UOTmOJu6AIBD5Z4DumTgz65A4Mi28VrmvwvtGTGTLE7Is0wDvil26o+8b6gA+Iw/bYsR5+bdZ8MWMHpXcOfXgBVb7PpFvWOl9M3xaAqgmwBSd7vOgi3gzoZ4AD3b97typaTWn7TgP5zzDAXYedBVEWPZ4sLZNAoA8KoYq2rVUl1WPoRQgC+3O9vF9O+pmthtuhDt+o/ld2mKrfvOnBhSpJS9gMA4sWCno12czTt/4Skefaeq0cUZbUWNgRF44LiHBxeeYuHnNc3fHAO+KHQk65KTpZTCiG4LWLeXAyervP1iLlkIVAlLN9SxYqudORcl8dP/SIna5hCR7gKqalRe/7eND1bVxm23kFCs2hmYGDLgmxgaYEQXLfrdcc8hoF9cpGsEh0uyaHkNn6yt49YrUpg1JSki0bvRMAIdLsnir2tZ+LktrkvEG6PWIVOcLrnbYhbaKG+SEd34v/iwu93ulFhVo/LMh6f5W0Etd1yVwqUj289ARZWwbKOdP/yjOmpdVqQot6kVOZkGTQHGG9Gt+TtS4WlfqxxDoPWr4/LquPfaVPJ6t27JVqTiAdaXOHnh42pKD7ubv7kdUGlTXTn1ayL6GoFAxEhWirF9q6+ODSVOfvS/J/n+iAR+eW0qvcLcF7CtXcC+Yx5+/0k1q4tieth3m+mWouj/Md2MQAX+fQBGDDB1qBWQqoQVhXZWFzmYc1ESN1+WTHILN4aQrdSAE1VeXvvMxidr6xpdSdyeyU5X9KHiRxTqN4GiXw/jYKu58Q2F2iuaoXj1YydY/HX4lndLgkLt/nfMePIEH63pmJV/QT9zidkg9MP8rQrwkZYSkPGrmekbYi9aZDhd6zMUZz11ghWFTa9oa6knUJXw6QY71zx2nBeXVDe6srgj8ORP0quCshYr+A4jLtFyrp5gHZvb29ShF4QePOEzFG9+rpxt+10h72mJEbi+xMkNvz3JI++coqK6A/7ldcyekrQuJ9M4Xpf1VyHEHkUI4QV+hm9POYQQSW/PyxIpCUqHPxZm+34XtzxfzoMLT3G4oqF925QJUFzm5vY/VHDnSxXsOdIxrPumGNjbtP+BWWn6A6hPAHPBPxcghFgNzNOumg2i/4cLsvcoCh1mVNAY0m8oznjiBM/+/XRgd69Q8QDHq7w8tbiKHz97kk27Y74rblRIsgrborlZUojAek8PMFvbK6CBb1VK+Tpwi5b+apt95bzXT10cK2FjQXqywm1XpvDuV7WBDSLyh1rJ7WXkvZW1ODvQIRHNoQjUpY/32Nwj3aA/RewXQoiXtESwAliBr6lfHi6f/ah63Xtf1YTcXKCL9s0Lt2eunDLMcrEu6x0hxE36exoMmoUQDuBaqN9Z4v7rUi8Y3MekX2DYRQdgRn7C+inDLBfpsrYAtwffd4bXRAhxFJgJOH1pkt66v3tCtxRRGXxvF+2TgTnGffNndxtCfQt/HLhGCHHG2Dik20wIsRa4V0sbFHq//1CPA53BKOzspCUaqt5+INsgRMDF7wauF0IcCnV/o35TIcSf0B06lJmqjHr+1ozVEZW2i4iiCNT3H87aYzLUB/jgM/pWNfpMM2XejW6n6cnDrFN/9L3kb9ooZxdR4g93ZBR0TzOM0WUtEkK82tQzTSqAEMINXA9ozYe4b3rqyJHnm0NuO9pF/JhzUXLBxMHWqbqstcDPm3uu2akz/6lTs/AbhUDCq/dkpmakKGdF9HBHYFg/c+kDM1NHUW/0HQNmCSGa9Wa1aO5UCLEOuE1LGxSR88HD2QcNCu02guhsIS1JOfX6vZkJgHaegxtf5bdof4cWR9cJId4GXtbS3ZKVUS/dkbEmHGE7E1/+tidLH+vR/I1RxKDg+fuvsw+aDEK/l/Odftd+iwg3vPI+YKWWGDfIetFtV6Y0ehxJF9HlT3d3X9MtWRmhy3pJCBFyV/DGCEsB/EbhTGC/lnf7D1LGjsk1fxtOOV20nZ9clrxmVK5J7+n7Brg/3HLCDrAWQlQAMwAtcsj6yt1Z6ZmpSnm4ZXXROi44z1z8i6tTR+qyyoDrhBChgx+aoKWnhzdACFEopbwdeAdAUej19wXZOy5bcDw1FucK5vU28e6D3Vm6vo63VtRwzzWpjDjfd0L4t9+5+dO/bGxuZDr3ijEJXD8lidwcE0YFysq9LNtUx1+/rA0cOaOhCJhzcRIz8pPolWngVI3KF4UOXvm0OmTZsSArVTn5xr1ZqUCiP8sBzAi1FXxLaPUSCyHEX4AXtHRKojL8lbsy1rW2vNbQO8vIm3OzMJt8J3Mt22RnaF8Tr9ydydRhZ2yLy33XpfLUf3Wjd5aRJevqeHelb7Hs3dNS+ePdmWccMT9/djr3T0/DZBS8t7KWZRvtTB1u4aU7M1HisLW80aC43384+4ii0EuXfZcQYmNry2zTWiv/zuKfApdrea//21bwylLblLaU2xxaCwCwaHkNLy6p/0cO6WNi0f3dOV2rctWjx3H55/dHDTDz2i+zOFTu4aZnyzld6wsMMSjw/O2Z5A+x8MelNt74tw2A0bkW/nxPJqWH3fz0uXLsLl85VrPgjXuzGHSuiaOVXn746PFoftUGvDk3c9UF51n0zp7nhRBz21Jmm/TYH052I7BPy/vZ5SkT8odYt7el3JZis6uBCtP49js3n22yk5GiMGVo/ULnayb4WszXPqsJVD6AV4XnPz6NlHDNxMRA/tXjfSuPXv2XLVD54ItA/uOnDd8ZC376Hylrgir/S+BXbS23zQ2ZEKISmA6BzQdML/w8o2fPDEOT59ZHgpJD7pBRulv2+vp//aoh7XMo22D/MQ/l1V5yMg2BAye1+7fsOdOuKtwT23CxcXnWnXdNS9H7+A8Cc4QQbXbERaQnE0JsA27CH12nCLIXP9i93GJs3hXZFhqL1NXy9YtEtM+NPVMeeEYE7veqBE4q1VPnlA1ahWjSPd1w4uU7MzLx7eoBYMdn9J2MRPkRM2WEEB8Bz2rplERl2KJ5Wa02TlpCY6d6afk1uuNdtc+NPZMVeEYG7jcovpNLg0m0CBLM0d9Fz2hQ3O8/1P2YonCOLvsWIcTmSL0j0rbsQ8AyLTEwxzT5nqtTG52Lbit5vU0hTwEd7T8ureRQfUi39nl07pkboPTNNpKVauBwhTcQNazdP2rAmaPaUQNis4nKwnsz16UlKRfosp4RQrwXyXdEVAH859P+J7BHy/uvy5InTh1m3RbJ92ikJCjccnlKg7whfUxcPjqBSptKQVF9D/SPdT6/1a1XJJOWVP+1DQrMnZ6KEPCPtfWr4v653hc9dfsPUhr8261mwR1XNXxnNLjn2tRVQ/uZ9KOpFcDDkX5PVNoxKeVgYB2QCqBKTl796AnP0VOec5p+smVow8DCvS5yexnZVeZm2z4X3dMNXDE6AZNBcP9rlawKOrH7vutS+dH3k6m0+Q6adrol+UOt9O9ppHCvizterMDtre/bf31DOtdNSuRIpZcvt9qREr5/YQInTnsZ0MtIjV1GZRg4Ic+y4+W7MwdS3+8fAMYKISLubY1aRyalvBbfukMBYHfK4kvmH+vrjMAWdKE8gSPPN2My+jyBr3zauCfwyjEJzJqaRG4vE0YDlJ308tmmOv7yVW3AZ6ChCLjh4mRmTE70eQJtKiv8nsClj/Wgzhl5BeiRZjy+9PHuKIrQphprgElCiB0RfZGfqFoyUsongQVaeu8Rz5rrnz7R5Hn2LUGvAI/+JXi9Y8fFbBaOFb/puTfJIrRjeyW+4d4H0XpntB2ajwBLtcT5vYz586ZHzyjs6Cy8t/tGXeUDPB3NyocoK4DfKLwRCEwX3/C95Enfu8C6NZrv7YjMm5H69eBzjXqj73N8f6CoEvUpDSGEDZ+nUFttbHzm1ow+fbINZdF+d0dh4hDr9hsuTtYvv9uNbwFn1NdhxOxMACnl1cDH+JXO4ZIll8w/dq7DJRObfrJzk5NpOPLJoz3MikA7orcGmCCEKIrF+2M2qSmEWAI8oaWtZpH3zrzuZ3VXYDYLx3vzs6t0lS+Bm2NV+RBDBfDzGPChluh/jnHS/NlpX8dYhnbDorlZm5IsYogu63EhxIeNPhAFYqoAQggJ3AwENHzm5KTJV45N3BRLOdoDD8/ptjIvxzRZl7UEeDzWcsQ8rkUIUYPPKNQG8IYnbkrv3y/b+F2sZYkXl45K2DIjP0Ff+cXAj/2jppgSh8AmEEKUArPxn2gpIONvC7KNZ4MSTB1m3fbbn3TLoz4e04ZvejcugYZxPRlMSvkw8FQgDZWvLbN9++dltvzOdmqZxSTsv7m52/qLh1snAdoUo4pv3f7SJh6NKvFWAAG8j2/tYQCvKo9sLnXt3rjbZTxU4bGqasdUBqtZeM/LNjgmDrWKgb1Mw4UInMuk8d9CiCfjIpyfuP+wUkoz8Dfg6njLEmP+Twgxr/nboktcbAA9/sUM1wO/wb9XYSenEri1PVQ+tIMWQI+UcgC+2MKrgPOAbvGVKCJIfMu1S/FNj78bjXn91vL/ANBkewl7s7QAAAAASUVORK5CYII=;" vertex="1" parent="1">
          <mxGeometry x="468.52000000000004" y="83" width="30.95" height="30" as="geometry" />
        </mxCell>
        <mxCell id="757bfJ0RXFp-mvQLW1i1-4" value="" style="shape=image;verticalLabelPosition=bottom;labelBackgroundColor=default;verticalAlign=top;aspect=fixed;imageAspect=0;image=data:image/png,iVBORw0KGgoAAAANSUhEUgAAAIAAAAB8CAYAAAChbripAAAABmJLR0QA/wD/AP+gvaeTAAAc5UlEQVR4nO1deXhU1dn/vXf2SSbbTBIkLGENhEXCFiCAWqXaWrBFUKDWQlWgsogIimLRVqv1q21ZtIBFRbSKS9VSq1ZEkRAWIYFAAkkg7AQC2cgkmf2e74+ZO7kzmWSWzJLB/J4nz5Nzzj3LnfPec97zbgf4AYExRoyxWxljbzLGShhjTYyxSsbYEcbYi4yxoZEeYydCAMYYxxibzBg7wLxjN2NscqTH3IkggDEmY4zdzxg77sPEuyOfMTadMUaRfo9Q4rp8OcaYGsCDAJYB6O5WbLxw1Xoot9hoPXXJpohTc5buyZz11mGqJI2aGwSAc3u+EMCLAD4kIj70ow8vrisCYIzFA1gA4BEAKS5lQM32AsPRlz6ov7Gu0ZbgqX7PVMn539+XdGZIumw0AIVbcRmAlwC8Q0TmEAw/IrguCIAxpgOwEMBiAIniMp6hasdhQ/Hz713LajDwcb60p43jqpZPiy++bZgqiwjudS4DWA1gHRE1BWP8kURUEwBjLBXAowAWAVCLy2w8LnyU23Bqzb/1o0wWpgqk/fgYTv/49Pgjt49QZZIbYQGoAvAqgDVEVBtI+x0BUUkAjLFeAJYAmAtAKS4z23Buy3Z9xWtf6EfaeEiD0V+MghoXTNbkT58Q25/j0MWtWA/gTQB/IqJLwegvnIgqAmCMDQGwHMBMwHVyjWZW+vr2hqrNX+nH8DwkoehfJiXzr26LPTD3Dk2aTIJ0t2ITgLcAPE9E50PRfygQFQTAGMsC8CSAaXAbs76JP/rXT+qN/9nfNJKx8LwPR+DvmRi7f/FdmhSFjPq4FZsBvA/gj0RUGo7xtAcdmgAYY+MBPAHgZ+5ldY188XPv1mHnEeOg8I/MDo7A/yxbnb9sWrw6RkHu4+ABfA7gWSLKj8DwfEKHIwCH4OVnAJ4CMMatmL9cZ8tf9VZtbP5J88Dwj651jBuoPLpyVryxS4JklIfirwGsIqK94R6XN3QYAmCMcQDuBPAsgOFuxZbyS9bvV75Ve8OJi5beYR+cHxg7UHH06VkJxi4JkpFo+fvmAXiJiP4TgaF5RMQJgDEmBzADwEoA/d2KTWUXrYdWvFnT82yl9Ybwjy5wDE6Xl62alXC1zw3SMUALpvQwgL/BLlSKqHQxYgTAGItBs7i2m2sZGvNPmvJ/t6VuwJU6W4rHBqIEPVIk51fOSDg9sp8iGy2li0UA/gzgXSKyhn90ESAAxlgcgDkAVgCuZ2qesZodh41HX9xaf+O1Js/i2mhFmlZSseqXCSdH9lOMhJvQCsAZ2KWLG4nIGM5xhY0AGGPJaJbTu0wuz3D1qwJD2Qtb67Iajcz9x7mukKThqh+fHl902zDVMCLEuxVXAtgA4K9EVB+O8YScABhjPQEshX25dxfXnv8ot+H06m360WYzU3ps4DpFjIIaFkzWFEyfGDuAI7hvc4KYeS0R1YRyHCEjAMZYH9iVM/PgtveZzOzkpu0NlW99pc8Olrg2WqFWcI0LJ8fmT58Q24/j4M7oNgB4A/aTQ0Uo+g86ATjMqpYBmAU37tdoZiX/+KKhfssO/Sg+TFK7aIEgZn7ojtiucgn1cis2AfgAwB+I6GQw+w3aJDDGcmBn7O50b1cQ127b1+RJSNIJEQTp4vJp8bFqBbkLuywAtgJ4kYiOB6O/dhNAW+Laq9eshc+8fU26v9QUMXFttIIIbHK2+uDSX8SpNGpusFuxIGb+AxEdaFc/gVZkjGUCWA9goluR7XyVNW/l5jpd8VlzZnsG1wk7brlRVbTi3nhep+HcrZYZgH8CeIyIrgTSdkAEwBibAvueJGbuzCUXLHuf3lzb43Sl1X0P60QQMKKfvGzVzITGbsnSYXCdu8sAbiWiY/626TcBMMYmAtgOQC7kXay27Zu/rrpHRbW1q7/tdcJ/3NhbXrLuYa3NTQN5BUCWv6cFvwiAMaaC3Uq2n5C1ZUdj7ppPr7lvA50IMTgC/8ZSbd6QdMUEUfbHRHS3X+342e+9aJ58bNtr2NU5+ZEBz8DN+Wv1+HNXrGIV81TGmF8Mt78EMEP4p9HEip/bWjvez/qdCCIYAz2wuqo/A8TSwln+tOGzFM6htnV+7a9u09cH0/audxcpFLIfhmzoWiOPihpbUNqq0fPa/SWm78YMUNzkyLoNdtW6T/BHDDscgGBe3fTp3sZhftT1ij/OTkT/NFkwm+yw+M/+Jjz7Tl3Q2nv9y4aUMQOcB7IsxpjaV58Ff7YA53Jf28CXBmpr34ng4/ApUwZjELSHMgA+S1z9IYBxzg7Lzdf8qNeJEINn4Krr+ROirBxf6/pDAGOFf3YcNmj8qNeJMKCg3NwgSgaXABhjfdFsvcPvPm7q19bznQg/thcYxMYl4xxGtl7h6wrgpCiTmZXrG31zsuxE+LCvxNQPgGBXmADAJ7N5X08BTgIoq7BegkgYFI0wWxgKys3Ye9wEtYIwLlOBQT3k4PyVinQgNJn4GIOJlagUNMCRlQOg2Fs9XwnAyQDuPGIIid9dqHGxyob9pSbsLzVhzzEjmkzMWfbaF3qoFYQR/RSYOFiJnEwFUhOj7zWPnzdfGd5XISaA17zV8UoAjDGX5eSbQkOPgEcYRhjNDIWnzfi+1ITvjhpx+nLbVtdNJobcIiNyi+xGuWk6CSYMUmLiECWy+sghl3Z8IdW3R0yy4X2d8gCfGEFfVoBxcPAKPMOVc1ds7iFXOgwuVtmwyzGJh8rNMFuZ90pttLX1u0Zs/a4RSjnhxl5yjM5QYOIQJXp36ZhmjN8cNvR+bKqTPevDGOtCRJfbquPLmzgp6WKV9RTQwoI1YrjWyONAmX1Zzys2obIuOOJVdxjNzLl9rNtWjzSdBNkZCmRnKDB2oBIxyo6xOlyutaXaeFYh4UhQy48F8ElbdfwigP0lJlM7xtdu8DxQetGC/SUmfF9qwsETJtgi4Fh1scqGj6ua8HFeEyQcMDhdjomDlcgeoMCAbjJQBOnh/FXbmfRUqUAAOWgPATDGXMSK2w+bdO0eYQAoPmvGlh2N+L7UhPqmjhWoy8YDhafMKDxlxrptQEqCBOMHKTB7kgZp2vAzknnHTNb0VOe0euUDvK0AWWh25jAUnoqMAGhQTzmemC5FwUmTY4/veISQpOEwdqD9FDE6Q4E4dWTOlNsLDF1+eUuMkBzhTTHkjQCcx7+6Rr7MYmU3tmdwcinh/ltjsel/er/rJmk43Jalwm1ZKvAMKL3QvBXknzTDaguc4QsEoVj6l0+Lx8v/ugbWjlcpPmfuyxjqHdHNZABGAMht7XlvBOBcQgpPW9oVCUslJ/xlbhJileQ3Afz+n3Xoc4MU4wcpkZ4qBUfAwO4yDOwuw+xJsahv4vG9g0nLO2ZCZW1omEFvzB/PgOPnzNhdbGeV5v3UP5XJtPFqKGSEF7bWgQ+QCHgeXI2eP6mN44QYCzloBwGIFEDGmLYebAtqBWH1vCSM6KdA8Vn/YyzmnzBh274m/O2TenRNkmDMQPskjMtUQq0gxKmbVwcgeMdB8fHvpiFK9PJw/BMTX26RCVev2YnvRzcG5ur4i3FqqOSEVW/XBszgFpSb9JOynNr6NvmAVgnAEYotTUjuLjL0DWQwGhWHVx5OwuB0ufeHfUBFjQ0f59k5cLmMkNXbPkHZAxQY2N1uUJKmk2DmzTGYeXOMi0Bo11EjTnkRCPkiACq/ZEVukTFk288dI1WQcMDTW+oCavvrQ8Y4MQEwxrjWAlG0tQI0K4AsrPxaI+83AcSpOby6QIvMHqGx9DFbxOdz1yVaWB2UcnLmLZoS5yIS3nvcCKmEMKq/vTxnkAKpCS05d4OZ4UCZCblFRuwuNuFKiOQNYkwaroJSTnj89Vq/V7A9xcYM2BVDUtgDXGYA8OhK1hYBOBnA8kvWSwD8IoAkDYf1C7Xo2zV8Zl7i87lCRhjWu+XynaaTYKpOjak5alhsDBIij0og8TZScNIMS5iZTACYMFiJlx9KwvJNNTBZfO+/yczUBhMrVSkow5GVgwAIwLkC7Dxq9Iu/1cVJsH6RNqIiU5PFs/RuwmAlxgxQQC4lyCTNryX+ykPJSPqLnEwF1j2sxZIN1S4KLG8oOW+uzOqrEAhgHIBNnp7zOEOOMC5O+/JvDht8lv+naSVYv0jXqhBkQHc5vn3JPdoqEKsM7blZvDqo5ISnZyXgjhH2fXL9Z3ps/rohbEfJO0aqcNOQlkyiVOL5OxvRV44187V4xA8i2HnEJM3yQTHU2q8+Fg7ffp6h6vRla09fOvU2+YD9/Byn5lr8hVMXbzAzVF1r/sIvVlvDKkeQScjjb9AWhveVY+Ninc8Cpm+PGsXh9PoxxjzqcFprzUkxl2qs5b50mJ4qxeuPtj35HQlioU0kZff+ILOHDBsWaZEQ650ILlZZu/A8BD9BguhIL4ZXAvi+xGLw1lnvLlJsXKxFcnx0TD4AkMgtMloIAAAyusmw6REddHHef+vzVdazoqTHbaAFATDGJABGC+nth5raVAAN6C7DpiW+DagjwWUFiLJoNb26SPHaI1qkeDiyirGn2GQRJX0jAAA3Aoh1/G86XG5uVQE0qKcM6xdqER8TfcZ0Ll99dM0/AKBnimPL1bVOBNsPG1JFyRGMtYzE5mnmnJSib2KlJitzj24JwM6UbFjkO1PSkRGF8w8A6JokwWuLdeie7Pm4ffSMuS9jEPwFFLArhlzQJgEUnjK1qgDK6qOAWhGtP110MoGeoIvj0OcGzwTA85DUNLbtMeSJAJwSwB2Fxlb9/17/nx5rPg1LMMuQIMp3AACAxcbwxBu12Hmk9eiyh06axJPUNgEwxnqg+Z49trvY6H4bhgu27GjAix+0T38dKUT7CmCyMDy6sabNyQeArw8ZxTrpce4XYbqvAE4KMdvY6Ro9r/U2kI9yG/HHduivIwVqNdHxYTDbJ3/vce8mmnuKjf0BCFIvHdxC8rsTQLMCqMJ60dcBfbKnCb/bErj+OiIgj/92eDQYeCx4pRr7S32zz200sVijmYmFeS7bQKsrQG6RfwqgLw8asPKt2rCbZgUD0bIF6A08Fvy9BoWn/TOqKbtoFvsGjBOXOQmAMRYLYIiQ3nHIkAY/sb3AgGWb/NdfRwLRMukCaht4zF1TjaIz/ltUfVtoEh8TXFYAccEYIc2A6vLL1vQAxoncIiOWb6rFnx9IhNxDzJ/yS1Y883bL0+ULcxLRo5XzbCjgIgoOW6925BYZsfHzlnaRby1LhsTDuay6nsf8dVVerZlawzeFxp6P/NzpMZTBGEsmoquAKwE4KaOyxlrOGLwygK1hd7ERC/9ejdXztS1kBUYzj+PnLS3qGM3hXTVcTwHhJYG6Rs+/AWMM7uRYWWvD/HXVOHc18BtlLlRZ03gelxzh6An2j/0/gCsP4NwbDpRZ2n0pcv5JMxatr0ajsWNuB9FwCrhUY8Pcte2bfAEXqqxnREnnx84BzivbsoXM/x0yJLW7RwCHy82Yv66q3U4cIk+X4EE06VwICKBnO8d89ooVD6yuwoWq4NwltafEJGYeXAkAduZPCDFiyj8RPA+gY+csmL+uGnUNgRPB2t9q8fcg2xeGatUf2kuOfzyiw8LJgQdROVNpxby11UE1S/u6wCA2CBnFmF3HIxCASAHEnzAHOQRc6QULHlxThar6wF8oO0OB91Yk46XfJKJrUvtVz8EWBffuIsVLv0nEm0t1GN43cBP4U5etmLu2yulfECwcOW3uxxgaHUkFHJdztiCAorPm6qD27MDpy1bMXVONK3WBrwQcAbdlqfDxqhQsuzu+XZrIYImCUxMlWDkjAe8/meJ0TAkUJecteHB1Farrgy9Rs/GQ1jXyZaKsHMADAXxzxORR/RsMnL1ixSoPR0B/IZMQZt4cg38/k4LZk2IDCjHb3q8+PobDoilx+PR3KZiaow6KTeNvX6nGtcbQiVMPn2qpGOIYY10BOI0+c4tcjAmDDn9Mm70hTu2YhFX2SfB0hm4VAa4AKjlh9qRYbHMQnydZR6AI5m/jCTsOGWNFyfGMMZJCFALWYsOZq3W29JCOIgRISbAvw/f9KBZ//0yPHYcNXjWU/toESiWEKWNUmPdTTdSZvwnYVeRUDElgVwz1lUJkLXqu0noBQHpERhcE9EyxM2LFZ2Ow9t96HDzRusLEV5tAIuDWYSosnKxp1fImWtBoZBqTmZ1QyEk45Y2TQnT+L7loicgFxsHGoJ5ybFysxf5SE9Z8Wo/SCy2lbr4wgdkZCiy+Kw4Dul8/Ucyr9Hx1mlYiEEC2FCKfv4pqa3Suba0gO0OBfz6ejB2HDVi3Te8iVGlr1R/UU4ZFU+Iwqn/I+OGIoUbPm0W+Gz2lAJwWIzqNtGM4xAUR5Dg63jxUiW37DNjweb39mOVhBeiZIsXDP9Pg1mGqqNMW+opEDSdezhKlAKrhiAMwrK/s+lnr3CCVEKbmqHHHSBXe3tHgoqRKibczkXeN9fMkEYVISeDEpuIVUgD7AUwFgPRU6UClnJqM5uv3Cne1glqEbpl1S8DBT6IKQ9PlpXKJ02UcAA5zAD4WUgQkPT4t4fvwD60T4cDzsxPc76nZysF+GXGpkDNljHJUv24ynxxCOxE9uHdCzL40rTRblPVPIjrJEZENwIOw30wNIorZskxHGhXXeS3MdYL+3WSnl0+PF19AfQXAUsChCyCi3QCWCaVyCfX+aGXKSY7DdXcq+KEhRkn6zUt1jMjp72kFcK9w2bST5yWitQBeF9K6eG7E//0msdX4cp3o+OAI/IcrU0oUMhLrdx4lop1CwuW06/Ae/Q7N7uHs5Y/r9733bYPH4ALBxJQxaiRprvMzmAMnKqzIK27boycYWD1Pu3PCYMXNoqy3ieh+8TMtxB2MsRsAHATQ1Z5G469evlpx/Jwlqq+J+aHh7hzV/qdmJI5G8xwXABhPRC4BP1p8ckR0CcA0ACZ7GjFvPZasStRQjfuzneiY6J8mPfXkvYmZaJ78SgB3uU8+0EqIGCLaC2CJkJZw6Pb+itQznUxhx0e8WlK3ZXmKhMgp4rcAuIeILnh6vtVNl4g2QHTpkDaOG/63h5J2B3W0nQgqOAL//lO6kzIJxFHdFhHRrlbreGlzIUSRpscPVk6875bYPe0cZydChLW/TcpNjpeMFGVtJqKNbdVpkwCIyALgHgDC8kGPTo3Lyuoj9xh2tBORw4ybYnPHDlROFGXtBTDfWz2v5y7HrVPT4WAKAag2LtbGJWm4kFgPd8J/DE6Xly2fFjcczUzfZQDTicirD7lPB28i2gdgrpCWcJT2wVMpZyUcrgsLomhGfAxXu2mJVgVAUGlaYJ98n+I7+Cx5IaItAF4V0omx3PBXfpuU589gg4WMbjLkr+uK39+XEInuOwwkHKz/ejrlrExC4ljODztE+z7BX9HbowB2ConRA5Q3zf2JplNcHCFsWJiclxjLDRNlvUJEHqOCtwa/CMDBFE4DcFrIm/dTzaiR/eTH/GmnE+3H7EmxecP7yW4SZe0B8Ji/7fgtfCeiagB3AxBcyJXrF+oStHFclb9tdSIwDO0lL1k0JS5LlHUewC+IyO/wIQEZuhPRIcbYPABvAwDHoeu/VqYcnbSyMs5iZcG5HMhHpCZKsPiuOIwdoIBKTjhRYcXGz+uRd8yVAc7oJsO7TyTjs/1NeOvrBiy+Kw7D+sghkxCOnbNgw+d65HvwI5g2PgbjMhXolyaDTsPBbGU4UWHFB7sa8VWB1zjaQYcujrv6+hJdHJrvczQCuFtQ7/qLgNVvRPQOgNVCWqPmhqxfkLQv0PYCQWqiBO8sT0Z6ihTbCwzYfcyEgT1kWD1fi2F9PNNhN50Uby7VQS4jvPttI744aHDGPJ44uOUlDivuiUdCDIf9JSZs+aYBXxUY0TNFihfnJGLOj2M99BA6SCWc5f2nUio4Dl1F2QuI6ECgbbbL+NkRWfy/AG4X8jb9T5+7/jP9hPa06w3C1wwAm77UY8Pneqcr2ORsNZ69LwE7jxjx2D9qPNbZvL0B67Y1+0lm9pBh82PJuNbI485nKmEW3c+THC9p4aqtlBM2LdGhTxcpbn+6Mmy3mL65VLtraC+FWNjzNyJa2p4226WAd5iTzQJwSsh78HbNmJxM5ZH2tOsrLtXYsPELvYsf4H+/b0KTibV6U5newON1t4srj52z4MuDBiRpOEwY5OoMIkw+ERCr4pCk4RCjJHxbaLRfW9fKShNs/ObHmjy3yf8GwOPtbbfdzm5EVMMYmwogD3ZhhGz1/KQuk5+tvHy5xtbycqAgovSCBbzbx8cz+6R5uv5NqOPJC7eg3IQ7R6uQ0U2GHYebjTUyuskw76cajOrvOTh2speY/cHA6Axl0YLJGrGM/yyAGUTUbkFcULwdiaiQMXY/gI8AEEdI2fpEctHtKysTWws3Hww0GDwvvVYbWvXXby34gpAfq2quOKC7DG88qoPJwvBhbiPKLlqgNzAwxpCdocB9P4qFPMT+oskJkiuvPpykhT2qBwAYYGf6rgaj/aDZYBHRxwBeFtIaNTd48zJdwMxJqKCN8/zKQr6YqO77kT34xIo3arH23/X48qABecVG7DlmQn1T6KOfSSWc5f0VyZcd4d0EPEBE+cHqI9hGeCsAfCEk+qfJxi+eEteqLjoSyOgm87iUj3BcsSb2JBZiER31EJ1zVP/Q7/1vLNHui4/hhoqy/kxE7wWzj6ASgON+2l8COCnk/XpS7NiJg5WFweynPdCoODxwu6trWGYPGW4foUKNnkducbMs4EKVnQHMHuC6i/1kpCrknsOLfx63a1C6THya+hrAU8HuJ+g7GBHVMsamANgH2O+w/8vcpK5Tnrly6VKt9QYv1UOOQ+VmTBuvxqCeMhSeMiM5QYI7RqhAAJ57t87lCPj+rkb8ZKQKL8xOxFcFBlyusSGjmww5mUpsLzBg0vCgBlNzYkyG4uivb40Ve/GcATAzGEyfO0Jih01ExwH8GgADAI6Q/OHK5GsKWUujxHDjYpUVc/5aBaOZYcZNMbhjhMoey/CVauwqcjXVLj5rxvxXqlF81oJbhqow82Y7T+Dp2WAhNV5aue7hpBQ0M30NAKYQUUhE7SH1gmeMPQ9gpZAur7Dm3fPilTbvsw8VxKLgZ95x95HsGJDLyfj1C13KYxQkXNvLYD/ufRCqPkPtibEKwGdCok9Xac6yqR2LKexIeGNJ8gHR5APAi6GcfCDEBOBgCmcBcKqLZ94SO+6WocrDoew3GrHs7rjvBnaXipm+r2D/gEKKkPtiEZEe9gAUgrex9M8PJfXokSI5H+q+owVjM5VHZt4cK3a/OwG7A2fI/TDCFgnHcTL4BA6iM5pZ6a1PXu5+PUcj8QVpWknFp8+kyjmCcEVvA4AxRFQcjv7D5o1JRNsAPCeklXLKeHtZ8g96K5DLyfjekyl1oslnAOaEa/KBMBKAA7+HXV8AAOh9g3Tck/fGfxfmMXQYbF6qOxijoExR1h+I6KNWK4QAYSUAImIA5gBwUvi08THjfzJKfTCc4+gIeGpG4s6MNNl4UdY2AH8I9zjC7pBPRA2wM4XCYVzy3P0JvdNTpOfCPZZI4bbhqoK7c1TiyS8B8CvHqSmsiEhEBiIqA3AvHDdaEpD04coU6Q+BCCYOVhb+aXZiBprF8HrY1bsRuYg5ovEwGWNPAfijMw3U/OML/bHXvtDnMNZRr3IKDAoZGV6Yk7j/5iHKcQAEVSIPu9/+Z21UDSkiTQAE4H3YfQ+dsPGsIr/MfOLACbP0QrVVyfPRSQxKOdl6pUiMYwcpqX9X2RAi571MAn5HRM9HZHAORPyHZYzJAXwIYEqkxxJm/IWIlnl/LLSIeFQmhzPDPQBegCNW4XWOGgAPdYTJBzrACiAGY6wvgPsB3AmgF4DEyI4oKGCwu2uXwR6W991QqXYDwf8DyTuSZ9gfeKUAAAAASUVORK5CYII=;" vertex="1" parent="1">
          <mxGeometry x="301.61" y="315" width="30.98" height="30" as="geometry" />
        </mxCell>
      </root>
    </mxGraphModel>
  </diagram>
</mxfile>
